<?xml version="1.0" encoding="UTF-8" standalone="no"?>
<!DOCTYPE svg PUBLIC "-//W3C//DTD SVG 1.1//EN"
 "http://www.w3.org/Graphics/SVG/1.1/DTD/svg11.dtd">
<!-- Generated by graphviz version 2.43.0 (0)
 -->
<!-- Title: %3 Pages: 1 -->
<svg width="85pt" height="332pt"
 viewBox="0.00 0.00 84.69 332.00" xmlns="http://www.w3.org/2000/svg" xmlns:xlink="http://www.w3.org/1999/xlink">
<g id="graph0" class="graph" transform="scale(1 1) rotate(0) translate(4 328)">
<title>%3</title>
<polygon fill="white" stroke="transparent" points="-4,4 -4,-328 80.69,-328 80.69,4 -4,4"/>
<!-- 4 -->
<g id="node1" class="node">
<title>4</title>
<ellipse fill="none" stroke="black" cx="38.35" cy="-306" rx="27" ry="18"/>
<text text-anchor="middle" x="38.35" y="-302.3" font-family="Times,serif" font-size="14.00">4</text>
</g>
<!-- 3 -->
<g id="node2" class="node">
<title>3</title>
<ellipse fill="none" stroke="black" cx="38.35" cy="-234" rx="27" ry="18"/>
<text text-anchor="middle" x="38.35" y="-230.3" font-family="Times,serif" font-size="14.00">3</text>
</g>
<!-- 4&#45;&gt;3 -->
<g id="edge1" class="edge">
<title>4&#45;&gt;3</title>
<path fill="none" stroke="black" d="M38.35,-287.7C38.35,-279.98 38.35,-270.71 38.35,-262.11"/>
<polygon fill="black" stroke="black" points="41.85,-262.1 38.35,-252.1 34.85,-262.1 41.85,-262.1"/>
</g>
<!-- 2 -->
<g id="node3" class="node">
<title>2</title>
<ellipse fill="none" stroke="black" cx="38.35" cy="-162" rx="27" ry="18"/>
<text text-anchor="middle" x="38.35" y="-158.3" font-family="Times,serif" font-size="14.00">2</text>
</g>
<!-- 3&#45;&gt;2 -->
<g id="edge2" class="edge">
<title>3&#45;&gt;2</title>
<path fill="none" stroke="black" d="M38.35,-215.7C38.35,-207.98 38.35,-198.71 38.35,-190.11"/>
<polygon fill="black" stroke="black" points="41.85,-190.1 38.35,-180.1 34.85,-190.1 41.85,-190.1"/>
</g>
<!-- 1 -->
<g id="node4" class="node">
<title>1</title>
<ellipse fill="none" stroke="black" cx="38.35" cy="-90" rx="27" ry="18"/>
<text text-anchor="middle" x="38.35" y="-86.3" font-family="Times,serif" font-size="14.00">1</text>
</g>
<!-- 2&#45;&gt;1 -->
<g id="edge3" class="edge">
<title>2&#45;&gt;1</title>
<path fill="none" stroke="black" d="M38.35,-143.7C38.35,-135.98 38.35,-126.71 38.35,-118.11"/>
<polygon fill="black" stroke="black" points="41.85,-118.1 38.35,-108.1 34.85,-118.1 41.85,-118.1"/>
</g>
<!-- NULL -->
<g id="node5" class="node">
<title>NULL</title>
<ellipse fill="none" stroke="black" cx="38.35" cy="-18" rx="38.19" ry="18"/>
<text text-anchor="middle" x="38.35" y="-14.3" font-family="Times,serif" font-size="14.00">NULL</text>
</g>
<!-- 1&#45;&gt;NULL -->
<g id="edge4" class="edge">
<title>1&#45;&gt;NULL</title>
<path fill="none" stroke="black" d="M38.35,-71.7C38.35,-63.98 38.35,-54.71 38.35,-46.11"/>
<polygon fill="black" stroke="black" points="41.85,-46.1 38.35,-36.1 34.85,-46.1 41.85,-46.1"/>
</g>
</g>
</svg>
