<?xml version="1.0" encoding="UTF-8" standalone="no"?>
<!DOCTYPE svg PUBLIC "-//W3C//DTD SVG 1.1//EN"
 "http://www.w3.org/Graphics/SVG/1.1/DTD/svg11.dtd">
<!-- Generated by graphviz version 2.43.0 (0)
 -->
<!-- Title: %3 Pages: 1 -->
<svg width="94pt" height="332pt"
 viewBox="0.00 0.00 93.79 332.00" xmlns="http://www.w3.org/2000/svg" xmlns:xlink="http://www.w3.org/1999/xlink">
<g id="graph0" class="graph" transform="scale(1 1) rotate(0) translate(4 328)">
<title>%3</title>
<polygon fill="white" stroke="transparent" points="-4,4 -4,-328 89.79,-328 89.79,4 -4,4"/>
<!-- fourth -->
<g id="node1" class="node">
<title>fourth</title>
<ellipse fill="none" stroke="black" cx="42.9" cy="-306" rx="39.79" ry="18"/>
<text text-anchor="middle" x="42.9" y="-302.3" font-family="Times,serif" font-size="14.00">fourth</text>
</g>
<!-- third -->
<g id="node2" class="node">
<title>third</title>
<ellipse fill="none" stroke="black" cx="42.9" cy="-234" rx="33.6" ry="18"/>
<text text-anchor="middle" x="42.9" y="-230.3" font-family="Times,serif" font-size="14.00">third</text>
</g>
<!-- fourth&#45;&gt;third -->
<g id="edge1" class="edge">
<title>fourth&#45;&gt;third</title>
<path fill="none" stroke="black" d="M42.9,-287.7C42.9,-279.98 42.9,-270.71 42.9,-262.11"/>
<polygon fill="black" stroke="black" points="46.4,-262.1 42.9,-252.1 39.4,-262.1 46.4,-262.1"/>
</g>
<!-- second -->
<g id="node3" class="node">
<title>second</title>
<ellipse fill="none" stroke="black" cx="42.9" cy="-162" rx="42.79" ry="18"/>
<text text-anchor="middle" x="42.9" y="-158.3" font-family="Times,serif" font-size="14.00">second</text>
</g>
<!-- third&#45;&gt;second -->
<g id="edge2" class="edge">
<title>third&#45;&gt;second</title>
<path fill="none" stroke="black" d="M42.9,-215.7C42.9,-207.98 42.9,-198.71 42.9,-190.11"/>
<polygon fill="black" stroke="black" points="46.4,-190.1 42.9,-180.1 39.4,-190.1 46.4,-190.1"/>
</g>
<!-- first -->
<g id="node4" class="node">
<title>first</title>
<ellipse fill="none" stroke="black" cx="42.9" cy="-90" rx="29.8" ry="18"/>
<text text-anchor="middle" x="42.9" y="-86.3" font-family="Times,serif" font-size="14.00">first</text>
</g>
<!-- second&#45;&gt;first -->
<g id="edge3" class="edge">
<title>second&#45;&gt;first</title>
<path fill="none" stroke="black" d="M42.9,-143.7C42.9,-135.98 42.9,-126.71 42.9,-118.11"/>
<polygon fill="black" stroke="black" points="46.4,-118.1 42.9,-108.1 39.4,-118.1 46.4,-118.1"/>
</g>
<!-- NULL -->
<g id="node5" class="node">
<title>NULL</title>
<ellipse fill="none" stroke="black" cx="42.9" cy="-18" rx="38.19" ry="18"/>
<text text-anchor="middle" x="42.9" y="-14.3" font-family="Times,serif" font-size="14.00">NULL</text>
</g>
<!-- first&#45;&gt;NULL -->
<g id="edge4" class="edge">
<title>first&#45;&gt;NULL</title>
<path fill="none" stroke="black" d="M42.9,-71.7C42.9,-63.98 42.9,-54.71 42.9,-46.11"/>
<polygon fill="black" stroke="black" points="46.4,-46.1 42.9,-36.1 39.4,-46.1 46.4,-46.1"/>
</g>
</g>
</svg>
